<?xml version="1.0" encoding="utf-8"?>
<!-- Generator: Adobe Illustrator 16.0.0, SVG Export Plug-In . SVG Version: 6.00 Build 0)  -->
<!DOCTYPE svg PUBLIC "-//W3C//DTD SVG 1.1//EN" "http://www.w3.org/Graphics/SVG/1.1/DTD/svg11.dtd">
<svg version="1.1" id="Layer_1" xmlns="http://www.w3.org/2000/svg" xmlns:xlink="http://www.w3.org/1999/xlink" x="0px" y="0px"
	 width="566.93px" height="566.93px" viewBox="0 0 566.93 566.93" enable-background="new 0 0 566.93 566.93" xml:space="preserve">
<g>
	<g>
		<polygon fill="#2A3747" points="291.97,52.979 282.75,47.658 273.53,52.979 87.754,160.237 78.535,165.558 78.535,176.209 
			78.535,390.733 78.535,401.375 87.754,406.696 273.53,513.954 282.75,519.275 291.97,513.954 477.746,406.696 486.966,401.375 
			486.966,390.733 486.966,176.209 486.966,165.558 477.746,160.237 		"/>
	</g>
	<g>
		<path fill="#4BB857" d="M419.764,197.7l-131.247-75.772c-3.565-2.062-7.959-2.062-11.524,0L145.736,197.7
			c-3.565,2.062-5.763,5.87-5.763,9.985v151.563c0,4.115,2.197,7.924,5.763,9.977l131.256,75.781c1.783,1.026,3.772,1.54,5.762,1.54
			c1.99,0,3.98-0.514,5.763-1.54l131.247-75.781c3.565-2.053,5.763-5.861,5.763-9.977V207.685
			C425.526,203.57,423.329,199.762,419.764,197.7z"/>
	</g>
	<g>
		<g>
			<path fill="#2A3747" d="M282.759,461.068c-3.819,0-6.915-3.098-6.915-6.915V191.524c0-3.817,3.096-6.915,6.915-6.915
				c3.82,0,6.915,3.097,6.915,6.915v262.629C289.674,457.971,286.579,461.068,282.759,461.068z"/>
		</g>
		<g>
			<path fill="#2A3747" d="M282.766,291.174c-2.391,0-4.713-1.233-5.994-3.457c-1.91-3.305-0.778-7.536,2.53-9.445l78.51-45.341
				c3.304-1.909,7.536-0.774,9.444,2.53c1.909,3.304,0.774,7.536-2.529,9.445l-78.51,45.341
				C285.129,290.877,283.938,291.174,282.766,291.174z"/>
		</g>
		<g>
			<path fill="#2A3747" d="M282.766,373.807c-2.391,0-4.713-1.233-5.994-3.457c-1.91-3.304-0.778-7.536,2.53-9.444l78.51-45.341
				c3.304-1.909,7.536-0.774,9.444,2.529c1.909,3.305,0.774,7.536-2.529,9.444l-78.51,45.342
				C285.129,373.51,283.938,373.807,282.766,373.807z"/>
		</g>
		<g>
			<path fill="#2A3747" d="M282.743,291.174c-1.173,0-2.361-0.297-3.45-0.928l-78.523-45.341c-3.307-1.909-4.441-6.131-2.53-9.445
				c1.909-3.304,6.138-4.438,9.444-2.53l78.523,45.341c3.305,1.909,4.439,6.141,2.53,9.445
				C287.457,289.94,285.134,291.174,282.743,291.174z"/>
		</g>
		<g>
			<path fill="#2A3747" d="M282.743,373.807c-1.173,0-2.361-0.297-3.45-0.927l-78.523-45.342c-3.307-1.908-4.441-6.131-2.53-9.444
				c1.909-3.304,6.138-4.438,9.444-2.529l78.523,45.341c3.305,1.908,4.439,6.141,2.53,9.444
				C287.457,372.573,285.134,373.807,282.743,373.807z"/>
		</g>
	</g>
	<g>
		<path fill="#4BB857" d="M489.271,156.249L289.665,41.005c-4.277-2.476-9.553-2.476-13.829,0L76.229,156.249
			c-4.276,2.467-6.915,7.032-6.915,11.975v230.488c0,4.942,2.639,9.507,6.915,11.983l199.606,115.234
			c2.138,1.233,4.528,1.854,6.914,1.854s4.776-0.621,6.915-1.854l199.605-115.234c4.276-2.477,6.915-7.041,6.915-11.983V168.223
			C496.186,163.28,493.547,158.715,489.271,156.249z M468.526,390.733L282.75,497.982L96.974,390.733V176.209L282.75,68.942
			l185.776,107.267V390.733z"/>
	</g>
</g>
</svg>
