<?xml version="1.0" encoding="utf-8"?>
<!-- Generator: Adobe Illustrator 16.0.0, SVG Export Plug-In . SVG Version: 6.00 Build 0)  -->
<!DOCTYPE svg PUBLIC "-//W3C//DTD SVG 1.1//EN" "http://www.w3.org/Graphics/SVG/1.1/DTD/svg11.dtd">
<svg version="1.1" id="Layer_1" xmlns="http://www.w3.org/2000/svg" xmlns:xlink="http://www.w3.org/1999/xlink" x="0px" y="0px"
	 width="566.93px" height="566.93px" viewBox="0 0 566.93 566.93" enable-background="new 0 0 566.93 566.93" xml:space="preserve">
<g>
	<g>
		<polygon fill="#2A3747" points="291.21,52.782 282.003,47.459 272.796,52.773 87.257,159.9 78.049,165.214 78.049,175.843 
			78.049,390.088 78.049,400.725 87.257,406.039 272.796,513.156 282.003,518.471 291.21,513.156 476.744,406.039 485.952,400.725 
			485.952,390.088 485.952,175.843 485.952,165.214 476.744,159.9 		"/>
	</g>
	<g>
		<path fill="#4BB857" d="M393.387,212.016l-105.625-60.991c-3.561-2.059-7.948-2.059-11.509,0l-105.635,60.991
			c-3.561,2.05-5.754,5.854-5.754,9.963V343.96c0,4.109,2.193,7.903,5.754,9.963l105.635,60.99c1.78,1.025,3.768,1.538,5.754,1.538
			c1.987,0,3.975-0.513,5.755-1.538l105.625-60.99c3.562-2.06,5.755-5.854,5.755-9.963V221.979
			C399.142,217.87,396.948,214.066,393.387,212.016z"/>
	</g>
	<g>
		<path fill="#2A3747" d="M282.007,455.043c-5.084,0-9.207-4.118-9.207-9.207V208.977c0-5.089,4.123-9.208,9.207-9.208
			c5.085,0,9.208,4.118,9.208,9.208v236.859C291.215,450.925,287.092,455.043,282.007,455.043z"/>
	</g>
	<g>
		<path fill="#2A3747" d="M282.017,292.815c-3.184,0-6.276-1.654-7.98-4.604c-2.545-4.406-1.034-10.035,3.367-12.58l63.185-36.488
			c4.401-2.544,10.035-1.034,12.575,3.372c2.544,4.397,1.034,10.035-3.367,12.58l-63.185,36.489
			C285.159,292.42,283.576,292.815,282.017,292.815z"/>
	</g>
	<g>
		<path fill="#2A3747" d="M282.017,360.208c-3.184,0-6.276-1.646-7.98-4.604c-2.545-4.397-1.034-10.035,3.367-12.579l63.185-36.488
			c4.401-2.536,10.035-1.025,12.575,3.371c2.544,4.406,1.034,10.035-3.367,12.58l-63.185,36.488
			C285.159,359.812,283.576,360.208,282.017,360.208z"/>
	</g>
	<g>
		<path fill="#2A3747" d="M281.989,292.815c-1.561,0-3.143-0.396-4.595-1.231l-63.193-36.489c-4.401-2.544-5.912-8.182-3.368-12.58
			c2.545-4.406,8.17-5.916,12.575-3.372l63.193,36.488c4.402,2.544,5.912,8.173,3.368,12.58
			C288.266,291.161,285.172,292.815,281.989,292.815z"/>
	</g>
	<g>
		<path fill="#2A3747" d="M281.989,360.208c-1.561,0-3.143-0.396-4.595-1.231l-63.193-36.488c-4.401-2.545-5.912-8.174-3.368-12.58
			c2.545-4.396,8.17-5.907,12.575-3.371l63.193,36.488c4.402,2.544,5.912,8.182,3.368,12.579
			C288.266,358.562,285.172,360.208,281.989,360.208z"/>
	</g>
	<g>
		<path fill="#4BB857" d="M488.254,155.908L288.908,40.814c-4.271-2.464-9.54-2.464-13.812,0L75.747,155.908
			c-4.271,2.473-6.905,7.031-6.905,11.968v230.187c0,4.937,2.634,9.496,6.905,11.959l199.35,115.094
			c2.136,1.232,4.523,1.853,6.906,1.853s4.77-0.62,6.905-1.853l199.346-115.094c4.271-2.463,6.905-7.022,6.905-11.959V167.876
			C495.159,162.939,492.525,158.381,488.254,155.908z M467.537,390.088L282.003,497.205L96.464,390.088V175.843L282.003,68.725
			l185.534,107.118V390.088z"/>
	</g>
</g>
</svg>
