<?xml version="1.0" encoding="utf-8"?>
<!-- Generator: Adobe Illustrator 16.0.0, SVG Export Plug-In . SVG Version: 6.00 Build 0)  -->
<!DOCTYPE svg PUBLIC "-//W3C//DTD SVG 1.1//EN" "http://www.w3.org/Graphics/SVG/1.1/DTD/svg11.dtd">
<svg version="1.1" id="Layer_1" xmlns="http://www.w3.org/2000/svg" xmlns:xlink="http://www.w3.org/1999/xlink" x="0px" y="0px"
	 width="566.93px" height="566.93px" viewBox="0 0 566.93 566.93" enable-background="new 0 0 566.93 566.93" xml:space="preserve">
<g>
	<g>
		<polygon fill="#2A3747" points="291.212,52.778 282.005,47.464 272.797,52.778 87.258,159.905 78.05,165.219 78.05,175.848 
			78.05,390.093 78.05,400.73 87.258,406.044 272.797,513.162 282.005,518.477 291.212,513.162 476.747,406.044 485.955,400.73 
			485.955,390.093 485.955,175.848 485.955,165.219 476.747,159.905 		"/>
	</g>
	<g>
		<path fill="#4BB857" d="M386.493,215.996l-98.733-57.007c-3.561-2.06-7.949-2.06-11.51,0l-98.742,57.007
			c-3.561,2.059-5.755,5.863-5.755,9.972v114.006c0,4.118,2.194,7.912,5.755,9.972l98.742,57.007
			c1.78,1.025,3.768,1.538,5.755,1.538s3.975-0.513,5.755-1.538l98.733-57.007c3.561-2.06,5.755-5.854,5.755-9.972V225.967
			C392.248,221.858,390.054,218.055,386.493,215.996z"/>
	</g>
	<path fill="#2A3747" d="M282.005,427.966c-6.357,0-11.51-5.152-11.51-11.509V222.425c0-6.357,5.152-11.51,11.51-11.51
		s11.509,5.152,11.509,11.51v194.032C293.514,422.813,288.362,427.966,282.005,427.966z"/>
	<path fill="#2A3747" d="M282.009,294.996c-3.974,0-7.845-2.059-9.976-5.754c-3.179-5.503-1.291-12.543,4.212-15.718l51.707-29.861
		c5.508-3.183,12.548-1.286,15.723,4.217c3.179,5.503,1.294,12.544-4.213,15.718l-51.707,29.861
		C285.943,294.502,283.96,294.996,282.009,294.996z"/>
	<path fill="#2A3747" d="M282.009,363.195c-3.974,0-7.845-2.068-9.976-5.754c-3.179-5.504-1.291-12.544,4.212-15.727l51.707-29.854
		c5.508-3.191,12.548-1.294,15.723,4.209c3.179,5.503,1.294,12.543-4.213,15.727l-51.707,29.853
		C285.943,362.701,283.96,363.195,282.009,363.195z"/>
	<path fill="#2A3747" d="M281.982,294.996c-1.951,0-3.93-0.494-5.741-1.537l-51.711-29.861c-5.507-3.174-7.391-10.215-4.212-15.718
		c3.174-5.503,10.214-7.4,15.722-4.217l51.711,29.861c5.508,3.174,7.392,10.215,4.213,15.718
		C289.832,292.938,285.966,294.996,281.982,294.996z"/>
	<path fill="#2A3747" d="M281.982,363.195c-1.951,0-3.93-0.494-5.741-1.546l-51.711-29.853c-5.507-3.184-7.391-10.224-4.212-15.727
		c3.174-5.503,10.214-7.4,15.722-4.209l51.711,29.854c5.508,3.183,7.392,10.223,4.213,15.727
		C289.832,361.127,285.966,363.195,281.982,363.195z"/>
	<g>
		<path fill="#4BB857" d="M488.257,155.913L288.91,40.819c-4.271-2.473-9.54-2.473-13.811,0L75.748,155.913
			c-4.271,2.473-6.905,7.031-6.905,11.959v230.196c0,4.937,2.635,9.496,6.905,11.959l199.351,115.094
			c2.135,1.232,4.523,1.844,6.906,1.844s4.771-0.611,6.905-1.844l199.347-115.094c4.271-2.463,6.905-7.022,6.905-11.959V167.872
			C495.162,162.944,492.527,158.386,488.257,155.913z M467.54,390.093L282.005,497.211L96.465,390.093V175.848l185.54-107.118
			L467.54,175.848V390.093z"/>
	</g>
</g>
</svg>
