<?xml version="1.0" encoding="utf-8"?>
<!-- Generator: Adobe Illustrator 16.0.0, SVG Export Plug-In . SVG Version: 6.00 Build 0)  -->
<!DOCTYPE svg PUBLIC "-//W3C//DTD SVG 1.1//EN" "http://www.w3.org/Graphics/SVG/1.1/DTD/svg11.dtd">
<svg version="1.1" id="Layer_1" xmlns="http://www.w3.org/2000/svg" xmlns:xlink="http://www.w3.org/1999/xlink" x="0px" y="0px"
	 width="566.93px" height="566.93px" viewBox="0 0 566.93 566.93" enable-background="new 0 0 566.93 566.93" xml:space="preserve">
<g>
	<g>
		<polygon fill="#2A3747" points="291.212,52.778 282.005,47.464 272.798,52.778 87.258,159.905 78.05,165.219 78.05,175.848 
			78.05,390.093 78.05,400.73 87.258,406.044 272.798,513.162 282.005,518.477 291.212,513.162 476.747,406.044 485.955,400.73 
			485.955,390.093 485.955,175.848 485.955,165.219 476.747,159.905 		"/>
	</g>
	<g>
		<path fill="#4BB857" d="M393.39,212.012l-105.626-60.991c-3.561-2.05-7.948-2.05-11.509,0L170.62,212.012
			c-3.561,2.059-5.755,5.863-5.755,9.972v121.973c0,4.117,2.194,7.912,5.755,9.972l105.635,60.981
			c1.78,1.034,3.768,1.547,5.754,1.547c1.988,0,3.975-0.513,5.755-1.547l105.626-60.981c3.561-2.06,5.755-5.854,5.755-9.972V221.984
			C399.145,217.875,396.95,214.071,393.39,212.012z"/>
	</g>
	<g>
		<path fill="#2A3747" d="M282.009,457.352c-6.356,0-11.509-5.152-11.509-11.51V208.973c0-6.357,5.152-11.509,11.509-11.509
			c6.357,0,11.51,5.152,11.51,11.509v236.869C293.519,452.199,288.366,457.352,282.009,457.352z"/>
	</g>
	<g>
		<path fill="#2A3747" d="M282.019,295.113c-3.975,0-7.841-2.059-9.977-5.754c-3.179-5.503-1.291-12.544,4.213-15.718l63.185-36.489
			c5.503-3.183,12.543-1.294,15.722,4.208s1.29,12.543-4.212,15.727l-63.186,36.488C285.952,294.619,283.97,295.113,282.019,295.113
			z"/>
	</g>
	<g>
		<path fill="#2A3747" d="M282.019,367.516c-3.975,0-7.841-2.068-9.977-5.755c-3.179-5.503-1.291-12.544,4.213-15.727l63.185-36.488
			c5.503-3.183,12.543-1.286,15.722,4.217s1.29,12.544-4.212,15.718l-63.186,36.488C285.952,367.021,283.97,367.516,282.019,367.516
			z"/>
	</g>
	<g>
		<path fill="#2A3747" d="M281.991,295.113c-1.955,0-3.934-0.494-5.746-1.537l-63.193-36.488
			c-5.503-3.184-7.391-10.224-4.213-15.727c3.179-5.503,10.219-7.392,15.723-4.208l63.193,36.489
			c5.503,3.174,7.392,10.214,4.213,15.718C289.837,293.055,285.966,295.113,281.991,295.113z"/>
	</g>
	<g>
		<path fill="#2A3747" d="M281.991,367.516c-1.955,0-3.934-0.495-5.746-1.547l-63.193-36.488
			c-5.503-3.174-7.391-10.215-4.213-15.718c3.179-5.503,10.219-7.391,15.723-4.217l63.193,36.488
			c5.503,3.183,7.392,10.224,4.213,15.727C289.837,365.447,285.966,367.516,281.991,367.516z"/>
	</g>
	<g>
		<path fill="#4BB857" d="M488.257,155.913L288.91,40.819c-4.271-2.473-9.54-2.473-13.812,0L75.748,155.913
			c-4.271,2.473-6.905,7.031-6.905,11.959v230.196c0,4.937,2.635,9.496,6.905,11.959l199.351,115.094
			c2.136,1.232,4.523,1.844,6.906,1.844s4.771-0.611,6.905-1.844l199.347-115.094c4.271-2.463,6.905-7.022,6.905-11.959V167.872
			C495.162,162.944,492.527,158.386,488.257,155.913z M467.54,390.093L282.005,497.211L96.466,390.093V175.848L282.005,68.729
			L467.54,175.848V390.093z"/>
	</g>
</g>
</svg>
