<?xml version="1.0" encoding="utf-8"?>
<!-- Generator: Adobe Illustrator 16.0.0, SVG Export Plug-In . SVG Version: 6.00 Build 0)  -->
<!DOCTYPE svg PUBLIC "-//W3C//DTD SVG 1.1//EN" "http://www.w3.org/Graphics/SVG/1.1/DTD/svg11.dtd">
<svg version="1.1" id="Layer_1" xmlns="http://www.w3.org/2000/svg" xmlns:xlink="http://www.w3.org/1999/xlink" x="0px" y="0px"
	 width="566.93px" height="566.93px" viewBox="0 0 566.93 566.93" enable-background="new 0 0 566.93 566.93" xml:space="preserve">
<g>
	<g>
		<polygon fill="#2A3747" points="291.97,52.979 282.753,47.658 273.532,52.979 87.752,160.237 78.532,165.558 78.532,176.209 
			78.532,390.733 78.532,401.375 87.752,406.696 273.532,513.954 282.753,519.275 291.97,513.954 477.746,406.696 486.966,401.375 
			486.966,390.733 486.966,176.209 486.966,165.558 477.746,160.237 		"/>
	</g>
	<g>
		<path fill="#4BB857" d="M394.284,212.421l-105.763-61.07c-3.568-2.062-7.962-2.062-11.526,0l-105.772,61.07
			c-3.565,2.062-5.763,5.861-5.763,9.976v122.141c0,4.114,2.197,7.923,5.763,9.976l105.772,61.07
			c1.782,1.026,3.771,1.539,5.762,1.539c1.989,0,3.979-0.513,5.765-1.539l105.763-61.07c3.565-2.053,5.763-5.861,5.763-9.976
			V222.396C400.047,218.282,397.85,214.482,394.284,212.421z"/>
	</g>
	<g>
		<path fill="#2A3747" d="M282.757,453.46c-3.82,0-6.914-3.097-6.914-6.914V209.378c0-3.818,3.094-6.915,6.914-6.915
			c3.819,0,6.917,3.097,6.917,6.915v237.168C289.674,450.363,286.576,453.46,282.757,453.46z"/>
	</g>
	<g>
		<path fill="#2A3747" d="M282.764,291.021c-2.391,0-4.714-1.233-5.994-3.457c-1.911-3.305-0.776-7.536,2.53-9.445l63.269-36.536
			c3.313-1.909,7.536-0.774,9.445,2.53c1.908,3.304,0.773,7.536-2.53,9.445l-63.27,36.536
			C285.125,290.724,283.937,291.021,282.764,291.021z"/>
	</g>
	<g>
		<path fill="#2A3747" d="M282.764,358.501c-2.391,0-4.714-1.233-5.994-3.457c-1.911-3.305-0.776-7.536,2.53-9.444l63.269-36.536
			c3.313-1.909,7.536-0.774,9.445,2.53c1.908,3.304,0.773,7.535-2.53,9.444l-63.27,36.536
			C285.125,358.204,283.937,358.501,282.764,358.501z"/>
	</g>
	<g>
		<path fill="#2A3747" d="M282.741,291.021c-1.173,0-2.361-0.297-3.451-0.927l-63.275-36.536c-3.307-1.909-4.441-6.132-2.53-9.445
			c1.911-3.304,6.141-4.438,9.444-2.53l63.276,36.536c3.307,1.909,4.441,6.14,2.532,9.445
			C287.454,289.787,285.132,291.021,282.741,291.021z"/>
	</g>
	<g>
		<path fill="#2A3747" d="M282.741,358.501c-1.173,0-2.361-0.297-3.451-0.927l-63.275-36.536c-3.307-1.909-4.441-6.132-2.53-9.444
			c1.911-3.305,6.141-4.439,9.444-2.53l63.276,36.536c3.307,1.908,4.441,6.14,2.532,9.444
			C287.454,357.268,285.132,358.501,282.741,358.501z"/>
	</g>
	<g>
		<path fill="#4BB857" d="M489.271,156.249L289.665,41.005c-4.274-2.476-9.551-2.476-13.827,0L76.228,156.249
			c-4.277,2.467-6.915,7.032-6.915,11.975v230.488c0,4.942,2.638,9.507,6.915,11.983l199.61,115.234
			c2.138,1.233,4.528,1.854,6.915,1.854c2.386,0,4.775-0.621,6.912-1.854l199.605-115.234c4.276-2.477,6.915-7.041,6.915-11.983
			V168.223C496.186,163.28,493.547,158.715,489.271,156.249z M468.526,390.733L282.753,497.982L96.972,390.733V176.209
			L282.753,68.942l185.773,107.267V390.733z"/>
	</g>
</g>
</svg>
