<?xml version="1.0" encoding="utf-8"?>
<!-- Generator: Adobe Illustrator 16.0.0, SVG Export Plug-In . SVG Version: 6.00 Build 0)  -->
<!DOCTYPE svg PUBLIC "-//W3C//DTD SVG 1.1//EN" "http://www.w3.org/Graphics/SVG/1.1/DTD/svg11.dtd">
<svg version="1.1" id="Layer_1" xmlns="http://www.w3.org/2000/svg" xmlns:xlink="http://www.w3.org/1999/xlink" x="0px" y="0px"
	 width="566.93px" height="566.93px" viewBox="0 0 566.93 566.93" enable-background="new 0 0 566.93 566.93" xml:space="preserve">
<g>
	<g>
		<polygon fill="#2A3747" points="291.21,52.782 282.003,47.459 272.795,52.782 87.261,159.9 78.054,165.214 78.054,175.843 
			78.054,390.088 78.054,400.725 87.261,406.039 272.795,513.156 282.003,518.471 291.21,513.156 476.744,406.039 485.952,400.725 
			485.952,390.088 485.952,175.843 485.952,165.214 476.744,159.9 		"/>
	</g>
	<g>
		<path fill="#4BB857" d="M418.838,197.314l-131.08-75.674c-3.561-2.059-7.949-2.059-11.51,0l-131.08,75.674
			c-3.562,2.06-5.756,5.854-5.756,9.972v151.366c0,4.109,2.194,7.913,5.756,9.963l131.08,75.683c1.78,1.025,3.768,1.538,5.755,1.538
			s3.974-0.513,5.755-1.538l131.08-75.683c3.561-2.059,5.755-5.854,5.755-9.963V207.287
			C424.593,203.168,422.398,199.374,418.838,197.314z"/>
	</g>
	<g>
		<g>
			<path fill="#2A3747" d="M282.012,462.642c-5.09,0-9.207-4.128-9.207-9.208V191.146c0-5.089,4.117-9.208,9.207-9.208
				c5.08,0,9.207,4.118,9.207,9.208v262.287C291.219,458.514,287.092,462.642,282.012,462.642z"/>
		</g>
		<g>
			<path fill="#2A3747" d="M282.021,292.969c-3.183,0-6.276-1.655-7.984-4.604c-2.545-4.405-1.034-10.034,3.372-12.579
				l78.407-45.282c4.401-2.554,10.035-1.034,12.575,3.372c2.54,4.397,1.033,10.035-3.367,12.57l-78.408,45.282
				C285.163,292.572,283.581,292.969,282.021,292.969z"/>
		</g>
		<g>
			<path fill="#2A3747" d="M282.021,375.494c-3.183,0-6.276-1.654-7.984-4.604c-2.545-4.406-1.034-10.035,3.372-12.58l78.407-45.282
				c4.401-2.554,10.035-1.034,12.575,3.372c2.54,4.397,1.033,10.035-3.367,12.57l-78.408,45.282
				C285.163,375.099,283.581,375.494,282.021,375.494z"/>
		</g>
		<g>
			<path fill="#2A3747" d="M281.994,292.969c-1.564,0-3.147-0.396-4.596-1.232l-78.425-45.282
				c-4.401-2.544-5.907-8.182-3.367-12.579c2.544-4.406,8.169-5.917,12.575-3.372l78.425,45.282
				c4.401,2.545,5.907,8.174,3.367,12.579C288.27,291.313,285.177,292.969,281.994,292.969z"/>
		</g>
		<g>
			<path fill="#2A3747" d="M281.994,375.494c-1.564,0-3.147-0.396-4.596-1.232l-78.425-45.281c-4.401-2.545-5.907-8.183-3.367-12.58
				c2.544-4.406,8.169-5.916,12.575-3.372l78.425,45.282c4.401,2.545,5.907,8.174,3.367,12.58
				C288.27,373.84,285.177,375.494,281.994,375.494z"/>
		</g>
	</g>
	<g>
		<path fill="#4BB857" d="M488.254,155.908L288.908,40.814c-4.271-2.464-9.54-2.464-13.811,0L75.752,155.908
			c-4.271,2.473-6.906,7.031-6.906,11.968v230.187c0,4.937,2.635,9.496,6.906,11.959l199.346,115.094
			c2.131,1.232,4.522,1.853,6.905,1.853s4.766-0.62,6.905-1.853l199.346-115.094c4.271-2.463,6.905-7.022,6.905-11.959V167.876
			C495.159,162.939,492.525,158.381,488.254,155.908z M467.537,390.088L282.003,497.205L96.469,390.088V175.843L282.003,68.725
			l185.534,107.118V390.088z"/>
	</g>
</g>
</svg>
