<?xml version="1.0" encoding="utf-8"?>
<!-- Generator: Adobe Illustrator 16.0.0, SVG Export Plug-In . SVG Version: 6.00 Build 0)  -->
<!DOCTYPE svg PUBLIC "-//W3C//DTD SVG 1.1//EN" "http://www.w3.org/Graphics/SVG/1.1/DTD/svg11.dtd">
<svg version="1.1" id="Layer_1" xmlns="http://www.w3.org/2000/svg" xmlns:xlink="http://www.w3.org/1999/xlink" x="0px" y="0px"
	 width="566.93px" height="566.93px" viewBox="0 0 566.93 566.93" enable-background="new 0 0 566.93 566.93" xml:space="preserve">
<g>
	<g>
		<polygon fill="#2A3747" points="291.21,52.782 282.003,47.459 272.795,52.773 87.256,159.9 78.049,165.214 78.049,175.843 
			78.049,390.088 78.049,400.725 87.256,406.039 272.795,513.156 282.003,518.471 291.21,513.156 476.744,406.039 485.952,400.725 
			485.952,390.088 485.952,175.843 485.952,165.214 476.744,159.9 		"/>
	</g>
	<g>
		<path fill="#4BB857" d="M386.49,216l-98.732-57.016c-3.561-2.05-7.949-2.05-11.51,0L177.506,216
			c-3.561,2.05-5.755,5.854-5.755,9.963v114.014c0,4.109,2.194,7.904,5.755,9.963l98.742,57.008c1.78,1.024,3.768,1.546,5.755,1.546
			c1.987,0,3.974-0.521,5.755-1.546l98.732-57.008c3.561-2.059,5.755-5.854,5.755-9.963V225.962
			C392.245,221.853,390.051,218.05,386.49,216z"/>
	</g>
	<path fill="#2A3747" d="M282.003,425.658c-5.085,0-9.208-4.118-9.208-9.207V222.419c0-5.08,4.123-9.208,9.208-9.208
		s9.207,4.127,9.207,9.208v194.032C291.21,421.54,287.088,425.658,282.003,425.658z"/>
	<path fill="#2A3747" d="M282.007,292.698c-3.183,0-6.276-1.654-7.98-4.604c-2.545-4.405-1.034-10.035,3.367-12.579l51.707-29.861
		c4.405-2.545,10.034-1.034,12.579,3.372c2.54,4.406,1.034,10.035-3.372,12.58l-51.707,29.861
		C285.15,292.303,283.567,292.698,282.007,292.698z"/>
	<path fill="#2A3747" d="M282.007,357.889c-3.183,0-6.276-1.646-7.98-4.604c-2.545-4.396-1.034-10.034,3.367-12.579l51.707-29.853
		c4.405-2.544,10.034-1.034,12.579,3.372c2.54,4.396,1.034,10.035-3.372,12.579l-51.707,29.853
		C285.15,357.492,283.567,357.889,282.007,357.889z"/>
	<path fill="#2A3747" d="M281.985,292.698c-1.564,0-3.147-0.396-4.595-1.231l-51.711-29.861c-4.406-2.545-5.912-8.174-3.372-12.58
		c2.54-4.406,8.178-5.917,12.579-3.372l51.711,29.861c4.406,2.544,5.912,8.174,3.372,12.579
		C288.261,291.044,285.168,292.698,281.985,292.698z"/>
	<path fill="#2A3747" d="M281.985,357.889c-1.564,0-3.147-0.396-4.595-1.232l-51.711-29.853c-4.406-2.544-5.912-8.183-3.372-12.579
		c2.54-4.406,8.178-5.916,12.579-3.372l51.711,29.853c4.406,2.545,5.912,8.183,3.372,12.579
		C288.261,356.242,285.168,357.889,281.985,357.889z"/>
	<g>
		<path fill="#4BB857" d="M488.254,155.908L288.908,40.814c-4.271-2.464-9.54-2.464-13.811,0L75.747,155.908
			c-4.271,2.473-6.905,7.031-6.905,11.968v230.187c0,4.937,2.634,9.496,6.905,11.959l199.35,115.094
			c2.135,1.232,4.523,1.853,6.906,1.853s4.77-0.62,6.905-1.853l199.346-115.094c4.271-2.463,6.905-7.022,6.905-11.959V167.876
			C495.159,162.939,492.525,158.381,488.254,155.908z M467.537,390.088L282.003,497.205L96.464,390.088V175.843L282.003,68.725
			l185.534,107.118V390.088z"/>
	</g>
</g>
</svg>
