<?xml version="1.0" encoding="utf-8"?>
<!-- Generator: Adobe Illustrator 16.0.0, SVG Export Plug-In . SVG Version: 6.00 Build 0)  -->
<!DOCTYPE svg PUBLIC "-//W3C//DTD SVG 1.1//EN" "http://www.w3.org/Graphics/SVG/1.1/DTD/svg11.dtd">
<svg version="1.1" id="Layer_1" xmlns="http://www.w3.org/2000/svg" xmlns:xlink="http://www.w3.org/1999/xlink" x="0px" y="0px"
	 width="566.93px" height="566.93px" viewBox="0 0 566.93 566.93" enable-background="new 0 0 566.93 566.93" xml:space="preserve">
<g>
	<g>
		<polygon fill="#2A3747" points="476.743,159.905 291.208,52.778 282,47.464 272.793,52.778 87.258,159.905 78.05,165.219 
			78.05,175.848 78.05,390.093 78.05,400.73 87.258,406.044 272.793,513.162 282,518.477 291.208,513.162 476.743,406.044 
			485.95,400.73 485.95,390.093 485.95,175.848 485.95,165.219 		"/>
	</g>
	<g>
		<path fill="#4BB857" d="M436.307,187.231l-148.552-85.763c-3.561-2.059-7.949-2.059-11.51,0l-148.552,85.763
			c-3.561,2.059-5.755,5.863-5.755,9.972v171.535c0,4.109,2.194,7.913,5.755,9.963l148.552,85.772
			c1.781,1.025,3.768,1.537,5.755,1.537s3.975-0.512,5.755-1.537L436.307,378.7c3.562-2.05,5.755-5.854,5.755-9.963V197.203
			C442.062,193.094,439.868,189.29,436.307,187.231z"/>
	</g>
	<g>
		<path fill="#4BB857" d="M488.252,155.913L288.906,40.819c-4.271-2.473-9.54-2.473-13.812,0L75.748,155.913
			c-4.271,2.473-6.905,7.031-6.905,11.959v230.196c0,4.937,2.635,9.496,6.905,11.959l199.347,115.094
			c2.14,1.232,4.522,1.844,6.905,1.844s4.775-0.611,6.906-1.844l199.346-115.094c4.271-2.463,6.906-7.022,6.906-11.959V167.872
			C495.158,162.944,492.523,158.386,488.252,155.913z M467.535,390.093L282,497.211L96.466,390.093V175.848L282,68.729
			l185.535,107.118V390.093z"/>
	</g>
	<g>
		<g>
			<path fill="#2A3747" d="M282.009,487.393c-6.356,0-11.509-5.152-11.509-11.51V166.905c0-6.357,5.152-11.509,11.509-11.509
				c6.357,0,11.51,5.152,11.51,11.509v308.978C293.519,482.24,288.366,487.393,282.009,487.393z"/>
		</g>
		<g>
			<path fill="#2A3747" d="M282.022,295.375c-3.996,0-7.877-2.078-10.003-5.791c-3.156-5.521-1.241-12.553,4.28-15.709
				l107.091-61.233c5.53-3.165,12.553-1.241,15.709,4.271c3.156,5.521,1.24,12.552-4.28,15.708l-107.091,61.233
				C285.921,294.889,283.96,295.375,282.022,295.375z"/>
		</g>
		<g>
			<path fill="#2A3747" d="M282.022,394.665c-3.956,0-7.809-2.041-9.949-5.7c-3.205-5.485-1.357-12.535,4.127-15.745l107.101-62.601
				c5.485-3.2,12.534-1.357,15.744,4.128c3.206,5.485,1.358,12.534-4.127,15.744l-107.1,62.601
				C285.992,394.162,283.997,394.665,282.022,394.665z"/>
		</g>
		<g>
			<path fill="#2A3747" d="M281.991,295.375c-1.996,0-4.015-0.514-5.854-1.61l-103.342-61.233
				c-5.467-3.237-7.274-10.305-4.033-15.771c3.242-5.467,10.296-7.274,15.768-4.028l103.342,61.233
				c5.467,3.237,7.274,10.305,4.032,15.771C289.751,293.36,285.921,295.375,281.991,295.375z"/>
		</g>
		<g>
			<path fill="#2A3747" d="M281.991,394.665c-2.032,0-4.092-0.53-5.953-1.663l-103.336-62.601c-5.436-3.3-7.172-10.376-3.881-15.808
				c3.296-5.439,10.372-7.175,15.808-3.885l103.338,62.601c5.435,3.3,7.17,10.377,3.879,15.808
				C289.68,392.696,285.885,394.665,281.991,394.665z"/>
		</g>
	</g>
</g>
</svg>
