<?xml version="1.0" encoding="utf-8"?>
<!-- Generator: Adobe Illustrator 16.0.0, SVG Export Plug-In . SVG Version: 6.00 Build 0)  -->
<!DOCTYPE svg PUBLIC "-//W3C//DTD SVG 1.1//EN" "http://www.w3.org/Graphics/SVG/1.1/DTD/svg11.dtd">
<svg version="1.1" id="Layer_1" xmlns="http://www.w3.org/2000/svg" xmlns:xlink="http://www.w3.org/1999/xlink" x="0px" y="0px"
	 width="566.93px" height="566.93px" viewBox="0 0 566.93 566.93" enable-background="new 0 0 566.93 566.93" xml:space="preserve">
<g>
	<polygon fill="#2A3747" points="292.148,52.979 282.931,47.658 273.712,52.979 87.931,160.237 78.711,165.558 78.711,176.209 
		78.711,390.733 78.711,401.375 87.931,406.696 273.712,513.954 282.931,519.275 292.148,513.954 477.925,406.696 487.145,401.375 
		487.145,390.733 487.145,176.209 487.145,165.558 477.925,160.237 	"/>
</g>
<g>
	<path fill="#4BB857" d="M362.916,232.203l-75.582-43.645c-2.725-1.569-6.082-1.569-8.809,0l-75.584,43.645
		c-2.727,1.577-4.404,4.481-4.404,7.626v87.275c0,3.146,1.678,6.057,4.404,7.626l75.584,43.638c1.363,0.792,2.885,1.184,4.406,1.184
		c1.52,0,3.041-0.392,4.402-1.184l75.582-43.638c2.725-1.569,4.404-4.48,4.404-7.626v-87.275
		C367.32,236.684,365.641,233.779,362.916,232.203z"/>
</g>
<g>
	<path fill="#4BB857" d="M489.449,156.249L289.844,41.005c-4.274-2.476-9.551-2.476-13.827,0L76.406,156.249
		c-4.276,2.467-6.915,7.032-6.915,11.975v230.488c0,4.942,2.639,9.507,6.915,11.983l199.61,115.234
		c2.139,1.233,4.528,1.854,6.914,1.854c2.387,0,4.776-0.621,6.913-1.854l199.605-115.234c4.276-2.477,6.915-7.041,6.915-11.983
		V168.223C496.364,163.28,493.726,158.715,489.449,156.249z M468.705,390.733L282.931,497.982L97.149,390.733V176.209
		L282.931,68.942l185.774,107.267V390.733z"/>
</g>
<g>
	<path fill="#2A3747" d="M282.005,427.966c-6.357,0-11.51-5.152-11.51-11.509V222.425c0-6.357,5.152-11.51,11.51-11.51
		s11.509,5.152,11.509,11.51v194.032C293.514,422.813,288.362,427.966,282.005,427.966z"/>
	<path fill="#2A3747" d="M282.01,294.996c-3.975,0-7.846-2.059-9.977-5.754c-3.179-5.503-1.291-12.543,4.213-15.718l51.706-29.861
		c5.508-3.183,12.548-1.286,15.723,4.217c3.179,5.503,1.294,12.544-4.213,15.718l-51.707,29.861
		C285.943,294.502,283.961,294.996,282.01,294.996z"/>
	<path fill="#2A3747" d="M282.01,352.195c-3.975,0-7.846-2.068-9.977-5.754c-3.179-5.504-1.291-12.544,4.213-15.727l51.706-29.854
		c5.508-3.191,12.548-1.294,15.723,4.209c3.179,5.503,1.294,12.543-4.213,15.727l-51.707,29.853
		C285.943,351.701,283.961,352.195,282.01,352.195z"/>
	<path fill="#2A3747" d="M281.982,294.996c-1.951,0-3.93-0.494-5.741-1.537l-51.712-29.861c-5.507-3.174-7.391-10.215-4.212-15.718
		c3.174-5.503,10.214-7.4,15.722-4.217l51.711,29.861c5.508,3.174,7.392,10.215,4.213,15.718
		C289.832,292.938,285.966,294.996,281.982,294.996z"/>
	<path fill="#2A3747" d="M281.982,352.195c-1.951,0-3.93-0.494-5.741-1.546l-51.712-29.853c-5.507-3.184-7.391-10.224-4.212-15.727
		c3.174-5.503,10.214-7.4,15.722-4.209l51.711,29.854c5.508,3.183,7.392,10.223,4.213,15.727
		C289.832,350.127,285.966,352.195,281.982,352.195z"/>
</g>
</svg>
