<?xml version="1.0" encoding="utf-8"?>
<!-- Generator: Adobe Illustrator 16.0.0, SVG Export Plug-In . SVG Version: 6.00 Build 0)  -->
<!DOCTYPE svg PUBLIC "-//W3C//DTD SVG 1.1//EN" "http://www.w3.org/Graphics/SVG/1.1/DTD/svg11.dtd">
<svg version="1.1" id="Layer_1" xmlns="http://www.w3.org/2000/svg" xmlns:xlink="http://www.w3.org/1999/xlink" x="0px" y="0px"
	 width="566.93px" height="566.93px" viewBox="0 0 566.93 566.93" enable-background="new 0 0 566.93 566.93" xml:space="preserve">
<g>
	<polygon fill="#2A3747" points="291.97,52.979 282.753,47.658 273.532,52.979 87.752,160.237 78.532,165.558 78.532,176.209 
		78.532,390.733 78.532,401.375 87.752,406.696 273.532,513.954 282.753,519.275 291.97,513.954 477.746,406.696 486.966,401.375 
		486.966,390.733 486.966,176.209 486.966,165.558 477.746,160.237 	"/>
</g>
<g>
	<path fill="#4BB857" d="M362.736,232.203l-75.582-43.645c-2.724-1.569-6.082-1.569-8.808,0l-75.584,43.645
		c-2.727,1.577-4.406,4.481-4.406,7.626v87.275c0,3.146,1.68,6.057,4.406,7.626l75.584,43.638c1.362,0.792,2.884,1.184,4.404,1.184
		c1.521,0,3.042-0.392,4.403-1.184l75.582-43.638c2.726-1.569,4.404-4.48,4.404-7.626v-87.275
		C367.141,236.684,365.462,233.779,362.736,232.203z"/>
</g>
<g>
	<path fill="#4BB857" d="M489.271,156.249L289.665,41.005c-4.274-2.476-9.551-2.476-13.827,0L76.228,156.249
		c-4.277,2.467-6.915,7.032-6.915,11.975v230.488c0,4.942,2.638,9.507,6.915,11.983l199.61,115.234
		c2.138,1.233,4.528,1.854,6.915,1.854c2.386,0,4.775-0.621,6.912-1.854l199.605-115.234c4.276-2.477,6.915-7.041,6.915-11.983
		V168.223C496.186,163.28,493.547,158.715,489.271,156.249z M468.526,390.733L282.753,497.982L96.972,390.733V176.209
		L282.753,68.942l185.773,107.267V390.733z"/>
</g>
<g>
	<path fill="#2A3747" d="M282.003,425.658c-5.085,0-9.207-4.118-9.207-9.207V222.419c0-5.08,4.122-9.208,9.207-9.208
		s9.207,4.127,9.207,9.208v194.032C291.21,421.54,287.088,425.658,282.003,425.658z"/>
	<path fill="#2A3747" d="M282.007,292.698c-3.183,0-6.275-1.654-7.979-4.604c-2.545-4.405-1.034-10.035,3.367-12.579l51.707-29.861
		c4.405-2.545,10.034-1.034,12.579,3.372c2.54,4.406,1.034,10.035-3.372,12.58l-51.707,29.861
		C285.15,292.303,283.567,292.698,282.007,292.698z"/>
	<path fill="#2A3747" d="M282.007,346.889c-3.183,0-6.275-1.646-7.979-4.604c-2.545-4.396-1.034-10.034,3.367-12.579l51.707-29.853
		c4.405-2.544,10.034-1.034,12.579,3.372c2.54,4.396,1.034,10.035-3.372,12.579l-51.707,29.853
		C285.15,346.492,283.567,346.889,282.007,346.889z"/>
	<path fill="#2A3747" d="M281.985,292.698c-1.564,0-3.147-0.396-4.596-1.231l-51.711-29.861c-4.406-2.545-5.912-8.174-3.371-12.58
		c2.539-4.406,8.178-5.917,12.578-3.372l51.712,29.861c4.406,2.544,5.912,8.174,3.372,12.579
		C288.261,291.044,285.168,292.698,281.985,292.698z"/>
	<path fill="#2A3747" d="M281.985,346.889c-1.564,0-3.147-0.396-4.596-1.232l-51.711-29.853c-4.406-2.544-5.912-8.183-3.371-12.579
		c2.539-4.406,8.178-5.916,12.578-3.372l51.712,29.853c4.406,2.545,5.912,8.183,3.372,12.579
		C288.261,345.242,285.168,346.889,281.985,346.889z"/>
</g>
</svg>
