<?xml version="1.0" encoding="utf-8"?>
<!-- Generator: Adobe Illustrator 16.0.0, SVG Export Plug-In . SVG Version: 6.00 Build 0)  -->
<!DOCTYPE svg PUBLIC "-//W3C//DTD SVG 1.1//EN" "http://www.w3.org/Graphics/SVG/1.1/DTD/svg11.dtd">
<svg version="1.1" id="Layer_1" xmlns="http://www.w3.org/2000/svg" xmlns:xlink="http://www.w3.org/1999/xlink" x="0px" y="0px"
	 width="566.93px" height="566.93px" viewBox="0 0 566.93 566.93" enable-background="new 0 0 566.93 566.93" xml:space="preserve">
<g>
	<g>
		<polygon fill="#2A3747" points="291.97,52.979 282.752,47.658 273.533,52.979 87.752,160.237 78.532,165.558 78.532,176.209 
			78.532,390.733 78.532,401.375 87.752,406.696 273.533,513.954 282.752,519.275 291.97,513.954 477.746,406.696 486.966,401.375 
			486.966,390.733 486.966,176.209 486.966,165.558 477.746,160.237 		"/>
	</g>
	<g>
		<path fill="#4BB857" d="M387.379,216.409l-98.867-57.091c-3.562-2.053-7.956-2.053-11.521,0l-98.871,57.091
			c-3.565,2.062-5.762,5.861-5.762,9.976v114.164c0,4.114,2.197,7.923,5.762,9.976l98.871,57.081
			c1.782,1.036,3.772,1.549,5.762,1.549s3.979-0.513,5.759-1.549l98.867-57.081c3.565-2.053,5.762-5.861,5.762-9.976V226.385
			C393.141,222.271,390.944,218.471,387.379,216.409z"/>
	</g>
	<g>
		<path fill="#2A3747" d="M282.752,424.037c-3.82,0-6.915-3.098-6.915-6.915V222.838c0-3.817,3.095-6.915,6.915-6.915
			s6.913,3.098,6.913,6.915v194.284C289.665,420.939,286.572,424.037,282.752,424.037z"/>
	</g>
	<g>
		<path fill="#2A3747" d="M282.754,290.903c-2.39,0-4.713-1.233-5.994-3.457c-1.911-3.305-0.779-7.536,2.53-9.444l51.772-29.9
			c3.304-1.909,7.54-0.774,9.444,2.53c1.913,3.304,0.783,7.536-2.53,9.445l-51.771,29.9
			C285.118,290.606,283.927,290.903,282.754,290.903z"/>
	</g>
	<g>
		<path fill="#2A3747" d="M282.754,356.179c-2.39,0-4.713-1.233-5.994-3.458c-1.911-3.304-0.777-7.535,2.53-9.444l51.772-29.892
			c3.313-1.908,7.54-0.773,9.444,2.53c1.913,3.313,0.779,7.536-2.53,9.444l-51.771,29.892
			C285.115,355.881,283.927,356.179,282.754,356.179z"/>
	</g>
	<g>
		<path fill="#2A3747" d="M282.736,290.903c-1.172,0-2.361-0.297-3.45-0.927l-51.779-29.9c-3.307-1.909-4.441-6.132-2.53-9.445
			c1.911-3.304,6.136-4.439,9.444-2.53l51.778,29.9c3.307,1.908,4.441,6.14,2.528,9.444
			C287.45,289.67,285.127,290.903,282.736,290.903z"/>
	</g>
	<g>
		<path fill="#2A3747" d="M282.736,356.179c-1.172,0-2.361-0.298-3.45-0.928l-51.779-29.892c-3.307-1.908-4.441-6.131-2.53-9.444
			c1.906-3.304,6.136-4.438,9.444-2.53l51.778,29.892c3.307,1.909,4.441,6.141,2.528,9.444
			C287.452,354.945,285.127,356.179,282.736,356.179z"/>
	</g>
	<g>
		<path fill="#4BB857" d="M489.271,156.249L289.665,41.005c-4.274-2.476-9.551-2.476-13.827,0L76.228,156.249
			c-4.277,2.467-6.915,7.032-6.915,11.975v230.488c0,4.942,2.638,9.507,6.915,11.983l199.61,115.234
			c2.138,1.233,4.528,1.854,6.915,1.854s4.776-0.621,6.913-1.854l199.605-115.234c4.276-2.477,6.915-7.041,6.915-11.983V168.223
			C496.186,163.28,493.547,158.715,489.271,156.249z M468.526,390.733L282.752,497.982L96.971,390.733V176.209L282.752,68.942
			l185.774,107.267V390.733z"/>
	</g>
</g>
</svg>
