<?xml version="1.0" encoding="utf-8"?>
<!-- Generator: Adobe Illustrator 16.0.0, SVG Export Plug-In . SVG Version: 6.00 Build 0)  -->
<!DOCTYPE svg PUBLIC "-//W3C//DTD SVG 1.1//EN" "http://www.w3.org/Graphics/SVG/1.1/DTD/svg11.dtd">
<svg version="1.1" id="Layer_1" xmlns="http://www.w3.org/2000/svg" xmlns:xlink="http://www.w3.org/1999/xlink" x="0px" y="0px"
	 width="566.93px" height="566.93px" viewBox="0 0 566.93 566.93" enable-background="new 0 0 566.93 566.93" xml:space="preserve">
<g>
	<g>
		<polygon fill="#2A3747" points="477.746,160.237 291.97,52.979 282.75,47.658 273.53,52.979 87.754,160.237 78.534,165.558 
			78.534,176.209 78.534,390.733 78.534,401.375 87.754,406.696 273.53,513.954 282.75,519.275 291.97,513.954 477.746,406.696 
			486.966,401.375 486.966,390.733 486.966,176.209 486.966,165.558 		"/>
	</g>
	<g>
		<path fill="#4BB857" d="M437.258,187.607l-148.746-85.884c-3.564-2.053-7.958-2.053-11.524,0l-148.745,85.884
			c-3.565,2.062-5.762,5.861-5.762,9.976v171.759c0,4.123,2.196,7.923,5.762,9.984l148.745,85.875
			c1.783,1.035,3.773,1.548,5.763,1.548c1.99,0,3.979-0.513,5.762-1.548l148.746-85.875c3.565-2.062,5.762-5.861,5.762-9.984
			V197.583C443.02,193.469,440.823,189.669,437.258,187.607z"/>
	</g>
	<g>
		<path fill="#4BB857" d="M489.271,156.249L289.665,41.005c-4.277-2.476-9.553-2.476-13.83,0L76.229,156.249
			c-4.276,2.467-6.914,7.032-6.914,11.975v230.488c0,4.942,2.638,9.507,6.914,11.983l199.605,115.234
			c2.139,1.233,4.529,1.854,6.915,1.854s4.776-0.621,6.915-1.854l199.605-115.234c4.276-2.477,6.915-7.041,6.915-11.983V168.223
			C496.186,163.28,493.547,158.715,489.271,156.249z M468.526,390.733L282.75,497.982L96.974,390.733V176.209L282.75,68.942
			l185.776,107.267V390.733z"/>
	</g>
	<g>
		<path fill="#2A3747" d="M282.759,483.55c-3.819,0-6.914-3.098-6.914-6.915V179.271c0-3.818,3.095-6.915,6.914-6.915
			c3.82,0,6.915,3.097,6.915,6.915v297.364C289.674,480.452,286.579,483.55,282.759,483.55z"/>
	</g>
	<g>
		<path fill="#2A3747" d="M282.766,291.281c-2.399,0-4.733-1.251-6.01-3.484c-1.896-3.312-0.745-7.535,2.57-9.426l107.233-61.322
			c3.322-1.9,7.536-0.748,9.436,2.565c1.899,3.313,0.747,7.536-2.566,9.436l-107.237,61.322
			C285.109,290.994,283.93,291.281,282.766,291.281z"/>
	</g>
	<g>
		<path fill="#2A3747" d="M282.766,383.692c-2.377,0-4.69-1.224-5.976-3.421c-1.927-3.295-0.817-7.536,2.48-9.463l107.235-62.69
			c3.295-1.918,7.535-0.811,9.453,2.485c1.927,3.295,0.819,7.526-2.476,9.453l-107.235,62.69
			C285.151,383.387,283.95,383.692,282.766,383.692z"/>
	</g>
	<g>
		<path fill="#2A3747" d="M282.743,291.281c-1.197,0-2.413-0.306-3.518-0.963l-103.473-61.322c-3.285-1.945-4.371-6.186-2.424-9.472
			c1.945-3.286,6.188-4.385,9.475-2.422l103.472,61.322c3.286,1.944,4.371,6.186,2.426,9.472
			C287.407,290.075,285.104,291.281,282.743,291.281z"/>
	</g>
	<g>
		<path fill="#2A3747" d="M282.743,383.692c-1.22,0-2.455-0.323-3.576-0.999l-103.473-62.69c-3.266-1.981-4.31-6.23-2.329-9.499
			c1.977-3.268,6.224-4.304,9.496-2.332l103.472,62.691c3.269,1.98,4.313,6.23,2.332,9.498
			C287.364,382.514,285.082,383.692,282.743,383.692z"/>
	</g>
</g>
</svg>
