<?xml version="1.0" encoding="utf-8"?>
<!-- Generator: Adobe Illustrator 16.0.0, SVG Export Plug-In . SVG Version: 6.00 Build 0)  -->
<!DOCTYPE svg PUBLIC "-//W3C//DTD SVG 1.1//EN" "http://www.w3.org/Graphics/SVG/1.1/DTD/svg11.dtd">
<svg version="1.1" id="Layer_1" xmlns="http://www.w3.org/2000/svg" xmlns:xlink="http://www.w3.org/1999/xlink" x="0px" y="0px"
	 width="566.93px" height="566.93px" viewBox="0 0 566.93 566.93" enable-background="new 0 0 566.93 566.93" xml:space="preserve">
<g>
	<polygon fill="#2A3747" points="291.97,52.979 282.753,47.658 273.532,52.979 87.752,160.237 78.532,165.558 78.532,176.209 
		78.532,390.733 78.532,401.375 87.752,406.696 273.532,513.954 282.753,519.275 291.97,513.954 477.746,406.696 486.966,401.375 
		486.966,390.733 486.966,176.209 486.966,165.558 477.746,160.237 	"/>
</g>
<g>
	<path fill="#4BB857" d="M362.736,232.203l-75.582-43.645c-2.724-1.569-6.082-1.569-8.808,0l-75.584,43.645
		c-2.727,1.577-4.406,4.481-4.406,7.626v87.275c0,3.146,1.68,6.057,4.406,7.626l75.584,43.638c1.362,0.792,2.884,1.184,4.404,1.184
		c1.521,0,3.042-0.392,4.403-1.184l75.582-43.638c2.726-1.569,4.404-4.48,4.404-7.626v-87.275
		C367.141,236.684,365.462,233.779,362.736,232.203z"/>
</g>
<g>
	<path fill="#4BB857" d="M489.271,156.249L289.665,41.005c-4.274-2.476-9.551-2.476-13.827,0L76.228,156.249
		c-4.277,2.467-6.915,7.032-6.915,11.975v230.488c0,4.942,2.638,9.507,6.915,11.983l199.61,115.234
		c2.138,1.233,4.528,1.854,6.915,1.854c2.386,0,4.775-0.621,6.912-1.854l199.605-115.234c4.276-2.477,6.915-7.041,6.915-11.983
		V168.223C496.186,163.28,493.547,158.715,489.271,156.249z M468.526,390.733L282.753,497.982L96.972,390.733V176.209
		L282.753,68.942l185.773,107.267V390.733z"/>
</g>
<g>
	<path fill="#2A3747" d="M283.48,422.088c-3.819,0-6.914-3.098-6.914-6.916V220.888c0-3.817,3.095-6.915,6.914-6.915
		c3.82,0,6.913,3.098,6.913,6.915v194.284C290.394,418.99,287.301,422.088,283.48,422.088z"/>
</g>
<g>
	<path fill="#2A3747" d="M283.482,288.953c-2.39,0-4.713-1.232-5.993-3.457c-1.911-3.304-0.779-7.536,2.53-9.444l51.771-29.9
		c3.304-1.909,7.54-0.774,9.444,2.53c1.913,3.304,0.783,7.536-2.53,9.445l-51.771,29.901
		C285.847,288.656,284.656,288.953,283.482,288.953z"/>
</g>
<g>
	<path fill="#2A3747" d="M283.482,343.229c-2.39,0-4.713-1.232-5.993-3.457c-1.911-3.305-0.776-7.535,2.53-9.445l51.771-29.891
		c3.313-1.908,7.54-0.773,9.444,2.529c1.913,3.314,0.779,7.537-2.53,9.445l-51.771,29.891
		C285.844,342.932,284.656,343.229,283.482,343.229z"/>
</g>
<g>
	<path fill="#2A3747" d="M283.465,288.953c-1.172,0-2.361-0.297-3.45-0.926l-51.778-29.901c-3.307-1.909-4.441-6.132-2.53-9.445
		c1.911-3.304,6.136-4.439,9.444-2.53l51.778,29.9c3.307,1.908,4.441,6.14,2.528,9.444
		C288.179,287.721,285.855,288.953,283.465,288.953z"/>
</g>
<g>
	<path fill="#2A3747" d="M283.465,343.229c-1.172,0-2.361-0.297-3.45-0.928l-51.778-29.891c-3.307-1.908-4.441-6.131-2.53-9.445
		c1.906-3.303,6.136-4.438,9.444-2.529l51.778,29.891c3.307,1.91,4.441,6.141,2.528,9.445
		C288.181,341.996,285.855,343.229,283.465,343.229z"/>
</g>
</svg>
