<?xml version="1.0" encoding="utf-8"?>
<!-- Generator: Adobe Illustrator 16.0.0, SVG Export Plug-In . SVG Version: 6.00 Build 0)  -->
<!DOCTYPE svg PUBLIC "-//W3C//DTD SVG 1.1//EN" "http://www.w3.org/Graphics/SVG/1.1/DTD/svg11.dtd">
<svg version="1.1" id="Layer_1" xmlns="http://www.w3.org/2000/svg" xmlns:xlink="http://www.w3.org/1999/xlink" x="0px" y="0px"
	 width="566.93px" height="566.93px" viewBox="0 0 566.93 566.93" enable-background="new 0 0 566.93 566.93" xml:space="preserve">
<g>
	<g>
		<polygon fill="#2A3747" points="291.208,52.778 282,47.464 272.793,52.778 87.258,159.905 78.051,165.219 78.051,175.848 
			78.051,390.093 78.051,400.73 87.258,406.044 272.793,513.162 282,518.477 291.208,513.162 476.743,406.044 485.95,400.73 
			485.95,390.093 485.95,175.848 485.95,165.219 476.743,159.905 		"/>
	</g>
	<g>
		<path fill="#4BB857" d="M418.836,197.32l-131.072-75.683c-3.561-2.05-7.948-2.05-11.51,0l-131.09,75.683
			c-3.561,2.05-5.754,5.854-5.754,9.962v151.367c0,4.118,2.193,7.912,5.754,9.972l131.09,75.674
			c1.781,1.034,3.768,1.547,5.756,1.547c1.986,0,3.974-0.513,5.754-1.547l131.072-75.674c3.561-2.06,5.755-5.854,5.755-9.972
			V207.282C424.591,203.173,422.396,199.379,418.836,197.32z"/>
	</g>
	<g>
		<g>
			<path fill="#2A3747" d="M282.01,464.94c-6.357,0-11.51-5.152-11.51-11.51V191.143c0-6.357,5.152-11.51,11.51-11.51
				c6.356,0,11.509,5.152,11.509,11.51v262.288C293.519,459.788,288.366,464.94,282.01,464.94z"/>
		</g>
		<g>
			<path fill="#2A3747" d="M282.022,295.267c-3.979,0-7.845-2.06-9.976-5.755c-3.184-5.503-1.295-12.543,4.207-15.718l78.408-45.282
				c5.508-3.192,12.544-1.294,15.727,4.208c3.174,5.503,1.29,12.543-4.213,15.726l-78.407,45.282
				C285.957,294.771,283.974,295.267,282.022,295.267z"/>
		</g>
		<g>
			<path fill="#2A3747" d="M282.022,383.792c-3.979,0-7.845-2.059-9.976-5.754c-3.184-5.503-1.295-12.544,4.207-15.718
				l78.408-45.282c5.508-3.192,12.544-1.295,15.727,4.208c3.174,5.503,1.29,12.543-4.213,15.727l-78.407,45.282
				C285.957,383.298,283.974,383.792,282.022,383.792z"/>
		</g>
		<g>
			<path fill="#2A3747" d="M281.991,295.267c-1.951,0-3.929-0.495-5.745-1.538l-78.417-45.282
				c-5.508-3.183-7.392-10.223-4.218-15.726c3.179-5.503,10.225-7.391,15.727-4.208l78.417,45.282
				c5.508,3.174,7.392,10.215,4.217,15.718C289.841,293.207,285.966,295.267,281.991,295.267z"/>
		</g>
		<g>
			<path fill="#2A3747" d="M281.991,383.792c-1.951,0-3.929-0.494-5.745-1.537l-78.417-45.282
				c-5.508-3.184-7.392-10.224-4.218-15.727c3.179-5.503,10.225-7.391,15.727-4.208l78.417,45.282
				c5.508,3.174,7.392,10.215,4.217,15.718C289.841,381.733,285.966,383.792,281.991,383.792z"/>
		</g>
	</g>
	<g>
		<path fill="#4BB857" d="M488.252,155.913L288.906,40.819c-4.271-2.473-9.541-2.473-13.812,0L75.748,155.913
			c-4.271,2.473-6.905,7.031-6.905,11.959v230.196c0,4.937,2.635,9.496,6.905,11.959l199.347,115.094
			c2.14,1.232,4.522,1.844,6.905,1.844s4.775-0.611,6.906-1.844l199.346-115.094c4.271-2.463,6.906-7.022,6.906-11.959V167.872
			C495.158,162.944,492.523,158.386,488.252,155.913z M467.535,390.093L282,497.211L96.465,390.093V175.848L282,68.729
			l185.535,107.118V390.093z"/>
	</g>
</g>
</svg>
