<?xml version="1.0" encoding="utf-8"?>
<!-- Generator: Adobe Illustrator 16.0.0, SVG Export Plug-In . SVG Version: 6.00 Build 0)  -->
<!DOCTYPE svg PUBLIC "-//W3C//DTD SVG 1.1//EN" "http://www.w3.org/Graphics/SVG/1.1/DTD/svg11.dtd">
<svg version="1.1" id="Layer_1" xmlns="http://www.w3.org/2000/svg" xmlns:xlink="http://www.w3.org/1999/xlink" x="0px" y="0px"
	 width="566.93px" height="566.93px" viewBox="0 0 566.93 566.93" enable-background="new 0 0 566.93 566.93" xml:space="preserve">
<g>
	<g>
		<polygon fill="#2A3747" points="476.744,159.9 291.21,52.782 282.003,47.459 272.796,52.782 87.261,159.9 78.054,165.214 
			78.054,175.843 78.054,390.088 78.054,400.725 87.261,406.039 272.796,513.156 282.003,518.471 291.21,513.156 476.744,406.039 
			485.952,400.725 485.952,390.088 485.952,175.843 485.952,165.214 		"/>
	</g>
	<g>
		<path fill="#4BB857" d="M436.309,187.235l-148.551-85.772c-3.561-2.05-7.949-2.05-11.51,0l-148.552,85.772
			c-3.561,2.05-5.754,5.854-5.754,9.962v171.535c0,4.109,2.193,7.912,5.754,9.972l148.552,85.763
			c1.78,1.024,3.768,1.547,5.755,1.547c1.986,0,3.974-0.522,5.755-1.547l148.551-85.763c3.562-2.06,5.755-5.862,5.755-9.972V197.198
			C442.063,193.089,439.87,189.285,436.309,187.235z"/>
	</g>
	<g>
		<path fill="#4BB857" d="M488.254,155.908L288.908,40.814c-4.271-2.464-9.54-2.464-13.812,0L75.751,155.908
			c-4.271,2.473-6.905,7.031-6.905,11.968v230.187c0,4.937,2.635,9.496,6.905,11.959l199.346,115.094
			c2.131,1.232,4.523,1.853,6.906,1.853s4.766-0.62,6.905-1.853l199.346-115.094c4.271-2.463,6.905-7.022,6.905-11.959V167.876
			C495.159,162.939,492.525,158.381,488.254,155.908z M467.537,390.088L282.003,497.205L96.468,390.088V175.843L282.003,68.725
			l185.534,107.118V390.088z"/>
	</g>
	<g>
		<g>
			<path fill="#2A3747" d="M282.012,485.094c-5.089,0-9.208-4.127-9.208-9.208V178.909c0-5.089,4.119-9.208,9.208-9.208
				c5.08,0,9.207,4.118,9.207,9.208v296.977C291.219,480.967,287.092,485.094,282.012,485.094z"/>
		</g>
		<g>
			<path fill="#2A3747" d="M282.021,293.076c-3.201,0-6.303-1.663-8.002-4.64c-2.527-4.415-0.994-10.035,3.421-12.562
				l107.096-61.242c4.415-2.518,10.043-0.989,12.562,3.426c2.526,4.415,0.993,10.035-3.422,12.562L286.58,291.862
				C285.141,292.681,283.567,293.076,282.021,293.076z"/>
		</g>
		<g>
			<path fill="#2A3747" d="M282.021,385.367c-3.165,0-6.249-1.637-7.957-4.56c-2.572-4.396-1.088-10.034,3.3-12.597l107.096-62.609
				c4.392-2.562,10.029-1.079,12.592,3.3c2.572,4.397,1.089,10.035-3.3,12.598l-107.095,62.608
				C285.195,384.962,283.595,385.367,282.021,385.367z"/>
		</g>
		<g>
			<path fill="#2A3747" d="M281.993,293.076c-1.6,0-3.214-0.414-4.684-1.286l-103.342-61.242c-4.37-2.589-5.817-8.236-3.229-12.615
				c2.6-4.379,8.246-5.817,12.615-3.228l103.342,61.243c4.37,2.589,5.817,8.236,3.229,12.615
				C288.202,291.467,285.137,293.076,281.993,293.076z"/>
		</g>
		<g>
			<path fill="#2A3747" d="M281.993,385.367c-1.627,0-3.272-0.432-4.766-1.331l-103.332-62.609
				c-4.352-2.635-5.74-8.299-3.106-12.643c2.635-4.352,8.295-5.745,12.647-3.11l103.332,62.608c4.352,2.635,5.741,8.3,3.106,12.643
				C288.145,383.784,285.104,385.367,281.993,385.367z"/>
		</g>
	</g>
</g>
</svg>
